<svg xmlns="http://www.w3.org/2000/svg" width="32" height="32" fill="none"><path fill="#FF963C" d="M0 0h32v32H0z" opacity=".01"/><g fill="#FF963C" clip-path="url(#a)"><path d="m11.252 14.468-.812.554a6.956 6.956 0 0 0 1.94 1.901l.539-.824a5.988 5.988 0 0 1-1.667-1.631ZM14.786 5.715a5.982 5.982 0 0 1 2.317-.026l.181-.966a6.957 6.957 0 0 0-2.698.028l-.019.005.203.961.016-.002ZM12.818 6.467l-.556-.811a6.966 6.966 0 0 0-1.898 1.942l.824.538a5.975 5.975 0 0 1 1.63-1.67ZM10.274 11.243c0-.372.035-.739.102-1.098l-.966-.18a6.87 6.87 0 0 0 .028 2.704l.003.011.962-.2-.002-.011a5.987 5.987 0 0 1-.127-1.226ZM17.215 16.891a5.986 5.986 0 0 1-2.329.024l-.182.966a6.952 6.952 0 0 0 2.71-.027l.006-.001-.2-.963-.005.001ZM22.561 9.837l-.004-.024-.963.204.005.02a5.968 5.968 0 0 1 .022 2.334l.966.183a6.924 6.924 0 0 0-.026-2.717ZM19.173 16.041l.554.813a6.966 6.966 0 0 0 1.902-1.94l-.823-.539a5.996 5.996 0 0 1-1.633 1.666ZM20.742 8.025l.811-.556a6.97 6.97 0 0 0-1.944-1.897l-.537.824a5.977 5.977 0 0 1 1.67 1.629ZM19.372 10.14l-2.33-.339-1.043-2.111L14.957 9.8l-2.33.339 1.686 1.644-.398 2.32L16 13.01l2.084 1.095-.398-2.32 1.686-1.644Z"/><path fill-rule="evenodd" d="M26.113 11.573c0-2.917-1.134-5.567-2.96-7.478a10.083 10.083 0 0 0-3.52-2.391A9.686 9.686 0 0 0 16.002 1a9.69 9.69 0 0 0-3.662.716 10.084 10.084 0 0 0-3.49 2.38c-1.827 1.91-2.961 4.56-2.961 7.477 0 2.915 1.134 5.563 2.96 7.473 1.828 1.913 4.363 3.098 7.153 3.098 2.788 0 5.324-1.185 7.151-3.098 1.827-1.91 2.96-4.558 2.96-7.473ZM16 20.177c-2.276 0-4.328-.96-5.821-2.52-1.491-1.561-2.41-3.705-2.41-6.084 0-2.38.919-4.527 2.41-6.085A8.171 8.171 0 0 1 13.719 3.3a7.984 7.984 0 0 1 4.532-.007 8.152 8.152 0 0 1 3.57 2.194c1.49 1.558 2.41 3.705 2.41 6.085s-.92 4.523-2.41 6.084c-1.494 1.56-3.544 2.52-5.82 2.52Z" clip-rule="evenodd"/><path d="M8.737 20.242c-.153-.124-.307-.246-.455-.378l-.001.003-.012-.01-3.664 7.848-.105.281.139.22c.1.153.262.244.444.244h.085L8.67 27.36l1.385 3.314a.526.526 0 0 0 .964.019l2.834-6.068.837-1.783-.003-.002.006-.014a12.332 12.332 0 0 1-5.956-2.585ZM24.554 21.637l-.823-1.768-.003.002-.006-.013a12.339 12.339 0 0 1-5.932 2.878c-.158.028-.314.06-.474.08l.001.004-.014.004 3.673 7.87a.523.523 0 0 0 .477.306c.216 0 .401-.13.487-.325l1.385-3.314 3.435 1.065.08.024h.073c.181 0 .343-.09.443-.244l.144-.267-2.946-6.302Z"/></g><defs><clipPath id="a"><path fill="#fff" d="M4.5 1h23v30h-23z"/></clipPath></defs></svg>